<svg width="51" height="38" viewBox="0 0 51 38" fill="none" xmlns="http://www.w3.org/2000/svg">
<g id="amex-card 1" opacity="0.95" clip-path="url(#clip0_3911_237)" filter="url(#filter0_d_3911_237)">
<path id="Vector" d="M4.49927 29.462H46.54V0.546143H4.49927V29.462Z" fill="#E3E1E1"/>
<path id="Vector_2" d="M13.7726 16.5633L14.5859 17.588L15.4263 16.5702H16.0996V16.8847L15.0464 18.1644L16.0996 19.5328V16.5702H18.0006C18.3601 16.5702 18.8873 16.7528 18.8873 17.5719C18.8873 18.7211 18.1936 18.7347 17.8138 18.7347H16.8266V19.8473H15.4195L14.5599 18.757L13.6794 19.8392H10.8817V16.5627H13.7726V16.5633V16.5633ZM22.3849 16.5633H24.7825V17.2698H23.1187V17.8834H24.7363V18.505H23.1187V19.1538H24.7825V19.8398H22.3849V16.5633V16.5633ZM19.9681 19.8479H19.2344V16.5708H21.1415C21.5022 16.5708 22.022 16.7466 22.022 17.4481C22.022 17.8443 21.9153 18.136 21.5152 18.3558C21.8617 18.3997 21.9955 18.6486 21.9955 19.1749L22.022 19.8479H21.308L21.2883 19.2473C21.2821 18.97 21.1816 18.692 20.9287 18.692H19.9681V19.8479V19.8479ZM29.387 17.8406C30.2895 17.8902 30.364 18.3849 30.364 18.9111C30.364 19.5253 29.904 19.8547 29.4237 19.8547H27.8834V19.1532H29.0839C29.2877 19.1532 29.5908 19.1532 29.5908 18.8375C29.5908 18.6876 29.5372 18.5929 29.3204 18.5669C29.152 18.5489 28.9832 18.5361 28.8141 18.5285C27.9997 18.505 27.8106 18.061 27.8106 17.5199C27.8106 16.9057 28.204 16.5695 28.6843 16.5695H30.2246V17.2723H29.0975C28.8412 17.276 28.5641 17.2388 28.5641 17.5577C28.5641 17.7583 28.7013 17.7985 28.874 17.8177C28.9338 17.8183 29.334 17.8406 29.387 17.8406V17.8406ZM26.6395 17.8406C27.5414 17.8902 27.6165 18.3849 27.6165 18.9111C27.6165 19.5253 27.1559 19.8547 26.6761 19.8547H25.1353V19.1532H26.3358C26.539 19.1532 26.8432 19.1532 26.8432 18.8375C26.8432 18.6876 26.7896 18.5929 26.5729 18.5669C26.4758 18.552 26.1191 18.5297 26.0666 18.5285C25.2521 18.505 25.0631 18.061 25.0631 17.5199C25.0631 16.9057 25.4565 16.5695 25.9362 16.5695H27.477V17.2723H26.3499C26.0931 17.276 25.8166 17.2388 25.8166 17.5577C25.8166 17.7583 25.9531 17.7985 26.127 17.8177C26.1862 17.8183 26.5864 17.8406 26.6395 17.8406V17.8406ZM16.9733 14.2149H16.2396V10.9378H18.1468C18.5069 10.9378 19.0278 11.1136 19.0278 11.8151C19.0278 12.2108 18.9211 12.5036 18.521 12.7228C18.8675 12.7667 19.0013 13.0156 19.0013 13.5419L19.0278 14.2149H18.3144L18.2941 13.615C18.2873 13.337 18.188 13.0596 17.934 13.0596H16.9739V14.2149H16.9733V14.2149ZM19.4014 14.2149H20.1346V10.9341H19.4014V14.2149ZM13.4221 10.9378H15.8191V11.6436H14.1569V12.2584H15.7734V12.8807H14.1569V13.5277H15.8191V14.2149H13.4221V10.9378V10.9378ZM8.06863 14.2149H9.54569V11.7829L10.5255 14.2149H11.1926L12.1956 11.8232V14.2149H12.9288V10.9378H11.7588L10.8585 13.1364L9.96166 10.9378H8.81139V14.0942L7.53074 10.9378H6.56108L5.25391 14.2149H6.02771L6.31387 13.4837H7.77739L8.06863 14.2149V14.2149ZM24.3553 13.4856H22.8923L22.6056 14.2168H21.6382C20.8249 14.2168 20.4642 13.4689 20.4817 12.5618C20.5066 11.2158 21.2318 10.9359 21.5654 10.9359H22.5226V11.6492H22.0694C21.5823 11.6492 21.2025 11.7049 21.2025 12.4727V12.7104C21.2059 13.2881 21.4819 13.4249 21.6585 13.4651C21.702 13.4763 21.7821 13.4806 21.8115 13.4781L22.1287 13.4763L23.139 10.9378H24.1098L25.3599 14.0137V10.9359H26.443L27.6802 13.2051V10.9359H28.4134V14.2168H27.4133L26.0931 11.817V14.2168H24.646L24.3553 13.4856V13.4856Z" fill="#818283"/>
<path id="Vector_3" d="M30.2308 16.0593V1.47229H5.31714V12.7519L6.25124 10.4412H7.83837L8.35875 11.8157V10.4412H10.2919L10.8789 11.8021L11.4523 10.4412H18.2676C18.534 10.4412 18.8941 10.544 19.0549 10.8653V10.4412H20.4818V10.9384C20.6686 10.661 20.9485 10.4412 21.4949 10.4412H24.4027L24.9361 11.7717V10.4412H26.657L27.2699 11.5972V10.4412H28.8435V14.7121H27.1503L26.4431 13.4546V14.7121H24.296L23.9495 13.8781H23.2688L22.9488 14.7121H21.6015C21.308 14.6836 20.6285 14.5511 20.4818 14.0545V14.7121H17.8945V13.7765C17.8945 13.644 17.7878 13.4837 17.6411 13.4837H17.3611V14.7121H11.8525V13.7468L11.4393 14.7121H10.319L9.89226 13.732V14.7121H7.69162L7.39812 13.9518H6.69092L6.38444 14.7121H5.31714V28.5084H30.2308V20.0528C30.0976 20.2144 29.8843 20.3457 29.5643 20.3457H27.4827V20.0237C27.323 20.2144 27.0967 20.3457 26.736 20.3457H20.8684V19.4535C20.8548 19.3358 20.9084 19.0876 20.615 19.0876H20.3751V20.3457H18.8145V18.8962C18.6542 19.1903 18.3082 19.204 18.0813 19.2188H17.2539V20.3457H15.1735L14.5729 19.5408L13.9329 20.3457H10.3991V16.0593H13.9865L14.613 16.8345L15.2536 16.0593H18.0943C18.2941 16.0729 18.6739 16.1757 18.8145 16.4098V16.0593H21.242C21.4554 16.0593 21.8685 16.1609 22.0423 16.468V16.0593H25.0828V16.4389C25.2426 16.2054 25.4965 16.0593 25.8826 16.0593H27.8298V16.4252C27.9766 16.1906 28.3638 16.0593 28.5907 16.0593H30.2308V16.0593ZM37.0873 15.6866C37.0873 16.2345 35.1858 15.6303 35.1858 16.9627C35.1858 17.5713 35.6345 17.8468 36.1391 17.8468C36.537 17.8468 36.8424 17.7564 37.1437 17.4487L37.2521 17.762H38.211C38.1563 17.648 38.1478 17.4994 38.1478 17.3323V15.9615C38.1478 15.2619 38.0711 14.7474 36.8068 14.7474C35.7513 14.7474 35.3484 15.1108 35.3484 15.7312H36.3682C36.3936 15.4798 36.5929 15.447 36.7408 15.447C36.8536 15.447 37.0873 15.4748 37.0873 15.6866V15.6866ZM42.605 17.367V17.7589H43.5577V13.7307H42.4983V15.1238C42.2731 14.8328 42.0389 14.7436 41.7025 14.7436C41.0647 14.7436 40.5703 15.3752 40.5703 16.3491C40.5703 17.1769 40.9784 17.8425 41.7838 17.8425C42.1264 17.8425 42.3555 17.7254 42.605 17.367V17.367ZM40.2954 15.7522V14.7604C40.2497 14.7548 40.2034 14.7436 40.1571 14.7436C39.7451 14.7436 39.4844 14.9616 39.3365 15.421H39.3263V14.8278H38.3629V17.7583H39.4228V16.6042C39.4228 15.972 39.6424 15.7479 40.0759 15.7479L40.2954 15.7522V15.7522ZM33.9655 15.2631C33.9294 14.8446 33.6895 14.6037 33.3125 14.6037C32.8892 14.6037 32.6341 15.0012 32.6341 15.7782C32.6341 16.3435 32.7464 16.8741 33.3577 16.8741C33.746 16.8741 33.9294 16.5788 33.9757 16.1924H35.1327C35.0266 17.2326 34.3476 17.8579 33.3797 17.8579C32.1662 17.8579 31.4313 17.0431 31.4313 15.733C31.4313 14.4297 32.2368 13.6187 33.2623 13.6187C34.3838 13.6187 35.0114 14.2285 35.1085 15.2625H33.9655V15.2631V15.2631Z" fill="#818283"/>
<path id="Vector_4" d="M16.8273 18.0629H17.7411C18.0408 18.0629 18.1475 17.8722 18.1475 17.653C18.1475 17.492 18.051 17.2772 17.7439 17.2772H16.8273V18.0629ZM13.2794 17.2698H11.6161V17.8833H13.2326V18.5049H11.6161V19.1538H13.3065L14.1136 18.165L13.3997 17.2728L13.2794 17.2698ZM19.9683 18.0195H20.8821C21.1818 18.0195 21.2884 17.8728 21.2884 17.653C21.2884 17.492 21.1919 17.2772 20.8849 17.2772H19.9683V18.0195V18.0195ZM16.9735 12.3866H17.8873C18.1876 12.3866 18.2937 12.2404 18.2937 12.0207C18.2937 11.8603 18.1972 11.6436 17.8901 11.6436H16.9735V12.3866V12.3866ZM7.49422 12.7785H6.60132L7.0393 11.6324L7.49422 12.7785ZM23.6161 11.6343L23.1792 12.7797H24.0755L23.6161 11.6343Z" fill="#E3E1E1"/>
<path id="Vector_5" d="M45.5309 18.6566L36.5562 28.501H37.8306L45.5309 20.0546V18.6566Z" fill="#3A3A3A"/>
<path id="Vector_6" d="M45.5309 21.4113L39.0684 28.5011H40.3417L45.5309 22.8099V21.4113Z" fill="#818283"/>
<path id="Vector_7" d="M45.5309 24.1664L41.5784 28.501H42.8539L45.5309 25.5638V24.1664Z" fill="#FCFFFC"/>
<path id="Vector_8" d="M31.1423 26.9508C31.1427 26.7463 31.1798 26.544 31.2515 26.3553C31.3232 26.1666 31.4281 25.9953 31.5602 25.851C31.6922 25.7068 31.8489 25.5926 32.0213 25.5149C32.1937 25.4371 32.3783 25.3974 32.5647 25.398C32.7506 25.3978 32.9347 25.4378 33.1065 25.5158C33.2783 25.5938 33.4344 25.7082 33.5659 25.8524C33.6974 25.9966 33.8017 26.1679 33.8727 26.3563C33.9438 26.5448 33.9803 26.7468 33.9802 26.9508C33.981 27.1553 33.945 27.358 33.8743 27.5473C33.8035 27.7365 33.6994 27.9086 33.5679 28.0536C33.4364 28.1986 33.28 28.3137 33.1079 28.3923C32.9357 28.4709 32.7511 28.5115 32.5647 28.5116C32.3778 28.5119 32.1927 28.4717 32.02 28.3933C31.8473 28.3149 31.6904 28.2 31.5582 28.055C31.4261 27.91 31.3214 27.7378 31.25 27.5483C31.1786 27.3588 31.142 27.1558 31.1423 26.9508V26.9508Z" fill="#818283"/>
<path id="Vector_9" d="M33.8093 26.9508C33.8094 26.7715 33.7773 26.594 33.7147 26.4283C33.6522 26.2627 33.5605 26.1122 33.445 25.9855C33.3294 25.8587 33.1921 25.7582 33.0411 25.6897C32.8901 25.6212 32.7282 25.586 32.5648 25.5862C32.4011 25.5857 32.239 25.6206 32.0876 25.689C31.9363 25.7573 31.7987 25.8578 31.6828 25.9845C31.5669 26.1113 31.4749 26.2619 31.4121 26.4277C31.3493 26.5935 31.317 26.7712 31.3169 26.9508C31.3169 27.3133 31.4482 27.6611 31.6819 27.9174C31.9156 28.1738 32.2326 28.3178 32.5631 28.3178C32.8936 28.3178 33.2106 28.1738 33.4443 27.9174C33.678 27.6611 33.8093 27.3133 33.8093 26.9508V26.9508Z" fill="#E3E1E1"/>
<path id="Vector_10" d="M33.2703 27.8231H33.0406L32.5863 27.02H32.2307V27.8231H32.0371V26.082H32.7279C32.8617 26.082 32.9955 26.0907 33.1146 26.1681C33.2337 26.2418 33.2924 26.3966 33.2924 26.5427C33.2924 26.8857 33.0739 27.012 32.7912 27.02L33.2703 27.8231V27.8231Z" fill="#818283"/>
<path id="Vector_11" d="M32.5281 26.8529C32.751 26.8529 33.0964 26.8938 33.0964 26.5384C33.0964 26.2697 32.8808 26.2375 32.6839 26.2375H32.2312V26.8529H32.5281ZM37.0874 16.4643C37.0902 17.0128 36.9367 17.1862 36.5648 17.1862C36.3554 17.1862 36.2278 17.0853 36.2278 16.9404C36.2284 16.559 36.7414 16.6488 37.0874 16.4643V16.4643ZM42.534 16.3213C42.534 16.6618 42.4171 17.0029 42.0497 17.0029C41.7037 17.0029 41.6326 16.6457 41.6326 16.3374C41.6326 16.0142 41.7291 15.6439 42.0813 15.6439C42.4324 15.6439 42.534 15.9962 42.534 16.3213Z" fill="#E3E1E1"/>
</g>
<defs>
<filter id="filter0_d_3911_237" x="0" y="0" width="51" height="38" filterUnits="userSpaceOnUse" color-interpolation-filters="sRGB">
<feFlood flood-opacity="0" result="BackgroundImageFix"/>
<feColorMatrix in="SourceAlpha" type="matrix" values="0 0 0 0 0 0 0 0 0 0 0 0 0 0 0 0 0 0 127 0" result="hardAlpha"/>
<feOffset dy="4"/>
<feGaussianBlur stdDeviation="2"/>
<feComposite in2="hardAlpha" operator="out"/>
<feColorMatrix type="matrix" values="0 0 0 0 0 0 0 0 0 0 0 0 0 0 0 0 0 0 0.25 0"/>
<feBlend mode="normal" in2="BackgroundImageFix" result="effect1_dropShadow_3911_237"/>
<feBlend mode="normal" in="SourceGraphic" in2="effect1_dropShadow_3911_237" result="shape"/>
</filter>
<clipPath id="clip0_3911_237">
<rect width="43" height="30" fill="white" transform="translate(4)"/>
</clipPath>
</defs>
</svg>
